<?xml version="1.0" standalone="no"?>
<!DOCTYPE svg PUBLIC "-//W3C//DTD SVG 20010904//EN"
 "http://www.w3.org/TR/2001/REC-SVG-20010904/DTD/svg10.dtd">
<svg version="1.0" xmlns="http://www.w3.org/2000/svg"
 width="56.000000pt" height="56.000000pt" viewBox="0 0 56.000000 56.000000"
 preserveAspectRatio="xMidYMid meet">
<metadata>
Created by potrace 1.16, written by Peter Selinger 2001-2019
</metadata>
<g transform="translate(0.000000,56.000000) scale(0.100000,-0.100000)"
fill="#000000" stroke="none">
<path d="M267 329 c-37 -22 -66 -46 -64 -52 4 -14 126 -87 144 -87 10 0 13 24
13 90 0 65 -3 90 -12 90 -7 0 -44 -18 -81 -41z m70 -105 c-6 -6 -97 46 -97 55
0 4 21 19 48 34 l47 26 3 -56 c2 -30 1 -57 -1 -59z"/>
</g>
</svg>
