<?xml version="1.0" standalone="no"?>
<!DOCTYPE svg PUBLIC "-//W3C//DTD SVG 20010904//EN"
 "http://www.w3.org/TR/2001/REC-SVG-20010904/DTD/svg10.dtd">
<svg version="1.0" xmlns="http://www.w3.org/2000/svg"
 width="44.000000pt" height="44.000000pt" viewBox="0 0 44.000000 44.000000"
 preserveAspectRatio="xMidYMid meet">
<metadata>
Created by potrace 1.16, written by Peter Selinger 2001-2019
</metadata>
<g transform="translate(0.000000,44.000000) scale(0.100000,-0.100000)"
fill="#000000" stroke="none">
<path d="M148 349 c-43 -22 -78 -81 -78 -129 0 -50 35 -107 80 -130 50 -25 90
-25 140 0 45 23 80 80 80 130 0 50 -35 107 -80 130 -49 25 -94 25 -142 -1z
m122 -34 c32 -17 60 -61 60 -95 0 -53 -57 -110 -110 -110 -53 0 -110 57 -110
110 0 33 28 78 58 94 35 20 66 20 102 1z"/>
</g>
</svg>
