<?xml version="1.0" standalone="no"?>
<!DOCTYPE svg PUBLIC "-//W3C//DTD SVG 20010904//EN"
 "http://www.w3.org/TR/2001/REC-SVG-20010904/DTD/svg10.dtd">
<svg version="1.0" xmlns="http://www.w3.org/2000/svg"
 width="56.000000pt" height="56.000000pt" viewBox="0 0 56.000000 56.000000"
 preserveAspectRatio="xMidYMid meet">
<metadata>
Created by potrace 1.16, written by Peter Selinger 2001-2019
</metadata>
<g transform="translate(0.000000,56.000000) scale(0.100000,-0.100000)"
fill="#000000" stroke="none">
<path d="M219 341 c-84 -84 37 -207 123 -124 39 37 38 84 -1 124 -20 20 -39
29 -61 29 -22 0 -41 -9 -61 -29z m106 -16 c14 -13 25 -33 25 -45 0 -27 -43
-70 -70 -70 -27 0 -70 43 -70 70 0 12 11 32 25 45 13 14 34 25 45 25 12 0 32
-11 45 -25z"/>
</g>
</svg>
