<?xml version="1.0" standalone="no"?>
<!DOCTYPE svg PUBLIC "-//W3C//DTD SVG 20010904//EN"
 "http://www.w3.org/TR/2001/REC-SVG-20010904/DTD/svg10.dtd">
<svg version="1.0" xmlns="http://www.w3.org/2000/svg"
 width="56.000000pt" height="56.000000pt" viewBox="0 0 56.000000 56.000000"
 preserveAspectRatio="xMidYMid meet">
<metadata>
Created by potrace 1.16, written by Peter Selinger 2001-2019
</metadata>
<g transform="translate(0.000000,56.000000) scale(0.100000,-0.100000)"
fill="#000000" stroke="none">
<path d="M200 325 l0 -35 80 0 80 0 0 35 0 35 -80 0 -80 0 0 -35z m140 0 c0
-12 -13 -15 -60 -15 -47 0 -60 3 -60 15 0 12 13 15 60 15 47 0 60 -3 60 -15z"/>
<path d="M200 235 l0 -35 80 0 80 0 0 35 0 35 -80 0 -80 0 0 -35z m140 0 c0
-12 -13 -15 -60 -15 -47 0 -60 3 -60 15 0 12 13 15 60 15 47 0 60 -3 60 -15z"/>
</g>
</svg>
